# This file uses centimeters as units for non-parametric coordinates.

mtllib bardoor4.mtl
g default
v 0.146366 -1.572505 -2.411774
v 0.145662 -1.576697 -2.401046
v 0.145444 -1.586336 -2.397830
v -0.145445 -1.586336 -2.397830
v -0.145663 -1.576697 -2.401046
v -0.146366 -1.572505 -2.411774
v 0.193484 -1.586152 -3.191677
v 0.193325 -1.576612 -3.188201
v 0.192643 -1.572505 -3.177468
v -0.192652 -1.572505 -3.177468
v -0.193327 -1.576612 -3.188201
v -0.193483 -1.586152 -3.191677
v 0.434225 -1.577572 -2.362590
v 0.434206 -1.587197 -2.359580
v 0.445406 -1.586704 -2.362525
v 0.451526 -1.586207 -2.372540
v 0.446687 -1.577149 -2.371693
v 0.435560 -1.573391 -2.372687
v 0.569539 -1.577483 -3.137736
v 0.567657 -1.573391 -3.127162
v 0.579122 -1.577132 -3.125658
v 0.583856 -1.586133 -3.124237
v 0.580965 -1.586562 -3.135290
v 0.570445 -1.587005 -3.141155
v -0.432788 -1.576686 -2.364943
v -0.434152 -1.572505 -2.375037
v -0.445297 -1.576283 -2.374107
v -0.450138 -1.585400 -2.374991
v -0.443971 -1.585857 -2.364906
v -0.432765 -1.586311 -2.361933
v -0.571528 -1.576606 -3.140064
v -0.572178 -1.586139 -3.143494
v -0.582672 -1.585909 -3.137465
v -0.585474 -1.585681 -3.126033
v -0.581003 -1.576382 -3.127692
v -0.569715 -1.572505 -3.129483
v 0.571460 -1.662149 -3.126116
v 0.572133 -1.653531 -3.131396
v 0.581336 -1.652985 -3.125574
v 0.583606 -1.652424 -3.114267
v 0.579517 -1.661714 -3.114123
v 0.569578 -1.665606 -3.115541
v -0.570996 -1.661275 -3.128475
v -0.568998 -1.664721 -3.117913
v -0.579098 -1.660956 -3.116700
v -0.583458 -1.651886 -3.116979
v -0.581147 -1.652280 -3.128025
v -0.571929 -1.652668 -3.133743
v 0.438161 -1.662247 -2.377140
v 0.440014 -1.665606 -2.387717
v 0.449919 -1.661804 -2.386324
v 0.453810 -1.652733 -2.384746
v 0.447869 -1.653266 -2.374666
v 0.437151 -1.653780 -2.371644
v 0.146193 -1.652895 -2.410177
v 0.146550 -1.661362 -2.415758
v 0.147247 -1.664721 -2.426487
v -0.147248 -1.664721 -2.426487
v -0.146551 -1.661362 -2.415758
v -0.146194 -1.652895 -2.410177
v -0.436689 -1.661361 -2.379497
v -0.435676 -1.652894 -2.374001
v -0.446378 -1.652524 -2.376941
v -0.452301 -1.652143 -2.386808
v -0.448418 -1.661013 -2.388512
v -0.438555 -1.664721 -2.390072
v 0.191193 -1.664721 -3.165803
v 0.191922 -1.661281 -3.176529
v 0.192338 -1.652682 -3.181883
v -0.192337 -1.652682 -3.181883
v -0.191922 -1.661281 -3.176529
v -0.191194 -1.664721 -3.165803
v 0.443399 -1.579111 -2.363569
v 0.578509 -1.579031 -3.134443
v -0.441971 -1.578239 -2.365947
v -0.580412 -1.578251 -3.136652
v 0.579207 -1.660301 -3.123121
v -0.578814 -1.659510 -3.125566
v 0.446579 -1.660436 -2.377845
v -0.445088 -1.659616 -2.380133
vt 0.899905 0.993313
vt 0.894434 0.992879
vt 0.894479 0.607887
vt 0.899915 0.607159
vt 0.894134 0.998008
vt 0.898720 0.997473
vt 0.854445 0.612993
vt 0.854258 0.986628
vt 0.894220 0.602226
vt 0.898768 0.602660
vt 0.853937 0.991790
vt 0.854107 0.607202
vt 0.848835 0.613067
vt 0.848780 0.985819
vt 0.849607 0.990162
vt 0.849688 0.608459
vt 0.893952 0.599222
vt 0.853777 0.604221
vt 0.837388 0.604388
vt 0.842894 0.603935
vt 0.842834 0.989894
vt 0.837219 0.989044
vt 0.837112 0.599222
vt 0.841713 0.599755
vt 0.837081 0.994899
vt 0.841706 0.994483
vt 0.797237 0.984407
vt 0.797081 0.610440
vt 0.796851 0.605386
vt 0.796999 0.990064
vt 0.791759 0.984264
vt 0.791724 0.611313
vt 0.792569 0.607021
vt 0.836942 0.997987
vt 0.796765 0.992993
vt 0.792632 0.988805
vt 0.079758 0.223994
vt 0.085252 0.223634
vt 0.085252 0.373561
vt 0.079758 0.373201
vt 0.060062 0.076203
vt 0.065234 0.075519
vt 0.477413 0.199932
vt 0.477413 0.397267
vt 0.066437 0.520954
vt 0.061267 0.520255
vt 0.064724 0.069820
vt 0.060564 0.071504
vt 0.451648 0.007864
vt 0.482910 0.199583
vt 0.482910 0.397612
vt 0.452837 0.590384
vt 0.065961 0.526662
vt 0.061781 0.524959
vt 0.450878 0.001992
vt 0.457064 0.006900
vt 0.458256 0.591313
vt 0.451920 0.596166
vt 0.455377 0.002306
vt 0.456508 0.595864
vt 0.521350 0.007083
vt 0.522076 0.001992
vt 0.894828 0.068367
vt 0.894115 0.073440
vt 0.515934 0.006118
vt 0.517468 0.002151
vt 0.899532 0.074390
vt 0.899171 0.070078
vt 0.874258 0.223385
vt 0.495607 0.200878
vt 0.490114 0.200504
vt 0.879753 0.223742
vt 0.495607 0.396722
vt 0.874258 0.374215
vt 0.490114 0.397095
vt 0.879753 0.373858
vt 0.892909 0.523412
vt 0.520135 0.590220
vt 0.514725 0.591243
vt 0.898325 0.522456
vt 0.520756 0.595393
vt 0.893708 0.528463
vt 0.516215 0.595247
vt 0.897999 0.526758
vt 0.951644 0.156883
vt 0.957466 0.156771
vt 0.957466 0.305978
vt 0.951644 0.305866
vt 0.951124 0.008990
vt 0.956937 0.008980
vt 0.957473 0.453033
vt 0.951660 0.453021
vt 0.911449 0.306250
vt 0.911449 0.156499
vt 0.910914 0.007481
vt 0.951422 0.003254
vt 0.956008 0.004281
vt 0.951934 0.458760
vt 0.956535 0.457736
vt 0.911449 0.454512
vt 0.906336 0.156317
vt 0.906336 0.306432
vt 0.911225 0.001992
vt 0.905801 0.006964
vt 0.911673 0.459993
vt 0.906336 0.455031
vt 0.906895 0.002653
vt 0.907390 0.459332
vt 0.001914 0.200717
vt 0.007676 0.200636
vt 0.007676 0.398826
vt 0.001914 0.398746
vt 0.002441 0.008034
vt 0.008191 0.007570
vt 0.047854 0.201223
vt 0.047854 0.398240
vt 0.007669 0.592780
vt 0.001911 0.592447
vt 0.007924 0.002183
vt 0.003376 0.003440
vt 0.048367 0.006706
vt 0.053047 0.201436
vt 0.053047 0.398027
vt 0.047845 0.592652
vt 0.007529 0.598155
vt 0.002904 0.596998
vt 0.053572 0.007050
vt 0.053043 0.592175
vt 0.048037 0.001992
vt 0.052456 0.003083
vt 0.047611 0.597374
vt 0.051978 0.596179
vn -0.065589 -0.119699 0.990641
vn -0.045186 0.715029 0.697633
vn 0.043604 0.714380 0.698398
vn 0.061579 -0.119755 0.990892
vn 0.001026 0.999990 0.004447
vn 0.000271 0.999991 0.004303
vn 0.001724 0.999979 -0.006309
vn 0.047137 0.713427 -0.699143
vn -0.044123 0.713368 -0.699399
vn -0.000406 0.999979 -0.006455
vn 0.065828 -0.082427 -0.994421
vn -0.062857 -0.083289 -0.994541
vn 0.979999 0.085809 0.179554
vn 0.593980 -0.078776 0.800613
vn 0.621446 -0.150216 0.768922
vn 0.983281 -0.035469 0.178608
vn -0.117258 -0.123043 0.985450
vn -0.114083 -0.233040 0.965752
vn 0.011830 0.999909 0.006566
vn 0.587694 0.801961 0.107119
vn 0.611141 0.784766 0.103198
vn 0.014477 0.999888 -0.003873
vn 0.982598 0.081018 0.167145
vn 0.142070 -0.084138 -0.986274
vn 0.795787 -0.036920 -0.604451
vn 0.815346 -0.113780 -0.567684
vn 0.140712 -0.196384 -0.970378
vn 0.984892 -0.036023 0.169382
vn -0.980578 0.071406 0.182669
vn -0.597080 0.794430 0.111246
vn -0.617781 0.779046 0.106928
vn -0.983119 0.066748 0.170361
vn -0.009390 0.999937 0.006239
vn -0.012080 0.999918 -0.004175
vn 0.109908 -0.122696 0.986340
vn -0.590605 -0.078419 0.803141
vn -0.618681 -0.149953 0.771199
vn 0.106556 -0.232940 0.966636
vn -0.982188 -0.049790 0.181183
vn -0.798031 -0.055964 -0.600012
vn -0.813119 -0.133892 -0.566489
vn -0.983817 -0.050558 0.171899
vn -0.136345 -0.084223 -0.987075
vn -0.134906 -0.196564 -0.971166
vn 0.009515 -0.999948 -0.003634
vn 0.680358 -0.723364 0.117717
vn 0.673305 -0.729097 0.122793
vn 0.007327 -0.999960 0.005199
vn -0.670247 -0.732871 0.116918
vn -0.662068 -0.739480 0.121799
vn -0.011911 -0.999923 -0.003416
vn -0.009671 -0.999938 0.005431
vn -0.001542 -0.999993 0.003431
vn -0.039245 -0.816872 0.575482
vn 0.035818 -0.816546 0.576168
vn 0.000224 -0.999994 0.003598
vn -0.064421 -0.234307 0.970026
vn 0.060275 -0.234240 0.970309
vn 0.064245 -0.195757 -0.978546
vn 0.039153 -0.793504 -0.607304
vn -0.038124 -0.794100 -0.606590
vn -0.061377 -0.196640 -0.978553
vn -0.000920 -0.999983 -0.005750
vn -0.000351 -0.999984 -0.005578
vn -0.083845 0.695958 0.713170
vn 0.080422 0.697703 0.711859
vn 0.101704 0.713158 -0.693586
vn -0.095790 0.715016 -0.692515
vn -0.069739 -0.813918 0.576779
vn 0.063455 -0.814474 0.576719
vn 0.085197 -0.797166 -0.597719
vn -0.083530 -0.794440 -0.601571
vn 0.452590 0.589756 0.668842
vn 0.589662 0.630255 -0.505052
vn -0.455625 0.588258 0.668101
vn -0.614585 0.614737 -0.494352
vn 0.648589 -0.652335 -0.392162
vn -0.627322 -0.669268 -0.398180
vn 0.489078 -0.663458 0.566239
vn -0.475983 -0.670014 0.569668
s 1
g BardoorBaked
usemtl BarDoorBaked3SG
f 3/85/1 2/86/2 5/87/3 4/88/4
f 2/37/2 1/38/5 6/39/6 5/40/3
f 9/43/7 8/50/8 11/51/9 10/44/10
f 8/109/8 7/110/11 12/111/12 11/112/9
f 16/2/13 15/5/14 53/11/15 52/8/16
f 15/96/14 14/89/17 54/95/18 53/103/15
f 18/42/19 17/47/20 21/55/21 20/49/22
f 17/1/20 16/2/13 22/3/23 21/4/21
f 24/17/24 23/9/25 39/12/26 38/18/27
f 23/9/25 22/3/23 40/7/28 39/12/26
f 28/19/29 27/20/30 35/21/31 34/22/32
f 27/53/30 26/45/33 36/52/34 35/58/31
f 30/92/35 29/98/36 63/105/37 62/100/38
f 29/23/36 28/19/29 64/28/39 63/29/37
f 34/22/32 33/25/40 47/30/41 46/27/42
f 33/25/40 32/34/43 48/35/44 47/30/41
f 42/61/45 41/62/46 51/63/47 50/64/48
f 41/13/46 40/7/28 52/8/16 51/14/47
f 46/27/42 45/31/49 65/32/50 64/28/39
f 45/81/49 44/78/51 66/77/52 65/82/50
f 57/69/53 56/72/54 59/76/55 58/74/56
f 56/101/54 55/94/57 60/93/58 59/102/55
f 69/115/59 68/122/60 71/123/61 70/116/62
f 68/71/60 67/70/63 72/73/64 71/75/61
f 18/42/19 20/49/22 9/43/7 1/38/5
f 6/39/6 1/38/5 9/43/7 10/44/10
f 6/39/6 10/44/10 36/52/34 26/45/33
f 24/114/24 38/121/27 69/115/59 7/110/11
f 12/111/12 7/110/11 69/115/59 70/116/62
f 12/111/12 70/116/62 48/124/44 32/117/43
f 54/95/18 14/89/17 3/85/1 55/94/57
f 4/88/4 60/93/58 55/94/57 3/85/1
f 60/93/58 4/88/4 30/92/35 62/100/38
f 42/61/45 50/64/48 57/69/53 67/70/63
f 72/73/64 67/70/63 57/69/53 58/74/56
f 72/73/64 58/74/56 66/77/52 44/78/51
f 40/7/28 22/3/23 16/2/13 52/8/16
f 28/19/29 34/22/32 46/27/42 64/28/39
f 1/38/5 2/37/2 13/41/65 18/42/19
f 2/86/2 3/85/1 14/89/17 13/90/65
f 4/88/4 5/87/3 25/91/66 30/92/35
f 5/40/3 6/39/6 26/45/33 25/46/66
f 7/110/11 8/109/8 19/113/67 24/114/24
f 8/50/8 9/43/7 20/49/22 19/56/67
f 10/44/10 11/51/9 31/57/68 36/52/34
f 11/112/9 12/111/12 32/117/43 31/118/68
f 50/64/48 49/67/69 56/72/54 57/69/53
f 49/104/69 54/95/18 55/94/57 56/101/54
f 58/74/56 59/76/55 61/80/70 66/77/52
f 59/102/55 60/93/58 62/100/38 61/106/70
f 38/121/27 37/127/71 68/122/60 69/115/59
f 37/65/71 42/61/45 67/70/63 68/71/60
f 44/78/51 43/79/72 71/75/61 72/73/64
f 43/128/72 48/124/44 70/116/62 71/123/61
f 17/47/20 18/42/19 13/41/65 73/48/73
f 13/90/65 14/89/17 15/96/14 73/97/73
f 15/5/14 16/2/13 17/1/20 73/6/73
f 23/119/25 24/114/24 19/113/67 74/120/74
f 19/56/67 20/49/22 21/55/21 74/59/74
f 21/4/21 22/3/23 23/9/25 74/10/74
f 29/98/36 30/92/35 25/91/66 75/99/75
f 25/46/66 26/45/33 27/53/30 75/54/75
f 27/20/30 28/19/29 29/23/36 75/24/75
f 35/58/31 36/52/34 31/57/68 76/60/76
f 31/118/68 32/117/43 33/125/40 76/126/76
f 33/25/40 34/22/32 35/21/31 76/26/76
f 41/62/46 42/61/45 37/65/71 77/66/77
f 37/127/71 38/121/27 39/129/26 77/130/77
f 39/12/26 40/7/28 41/13/46 77/16/77
f 47/131/41 48/124/44 43/128/72 78/132/78
f 43/79/72 44/78/51 45/81/49 78/83/78
f 45/31/49 46/27/42 47/30/41 78/36/78
f 53/103/15 54/95/18 49/104/69 79/107/79
f 49/67/69 50/64/48 51/63/47 79/68/79
f 51/14/47 52/8/16 53/11/15 79/15/79
f 65/82/50 66/77/52 61/80/70 80/84/80
f 61/106/70 62/100/38 63/105/37 80/108/80
f 63/29/37 64/28/39 65/32/50 80/33/80
