# This file uses centimeters as units for non-parametric coordinates.

mtllib mcbedflowers.mtl
g default
v -1.000000 1.562500 0.000000
v -1.000000 1.000000 0.000000
v 0.000000 1.000000 0.000000
v 0.000000 1.562500 0.000000
v 1.000000 1.000000 -0.000000
v 1.000000 1.000000 -1.000000
v 0.000000 1.562500 0.000000
v 0.000000 1.000000 0.000000
v 1.000000 1.562500 -0.000000
v 1.000000 1.562500 -1.000000
v -2.000000 1.000000 0.000000
v -2.000000 1.000000 -1.000000
v -1.000000 1.000000 0.000000
v -1.000000 1.562500 0.000000
v -2.000000 1.562500 0.000000
v -2.000000 1.562500 -1.000000
v -2.000000 1.562500 -2.000000
v -1.000000 1.562500 -2.000000
v -1.000000 1.000000 -2.000000
v -2.000000 1.000000 -2.000000
v -1.000000 1.562500 -2.000000
v -0.000000 1.562500 -2.000000
v -0.000000 1.000000 -2.000000
v -1.000000 1.000000 -2.000000
v -0.000000 1.562500 -2.000000
v 1.000000 1.562500 -2.000000
v 1.000000 1.000000 -2.000000
v -0.000000 1.000000 -2.000000
v -2.184736 2.224897 -1.815264
v -2.815264 2.224897 -1.184736
v -2.184736 3.002427 -1.815264
v -2.815264 3.002427 -1.184736
v -2.815264 2.224897 -1.815264
v -2.184736 2.224897 -1.184736
v -2.815264 3.002427 -1.815264
v -2.184736 3.002427 -1.184736
v 1.815264 2.224897 -1.815264
v 1.184736 2.224897 -1.184736
v 1.815264 3.002427 -1.815264
v 1.184736 3.002427 -1.184736
v 1.184736 2.224897 -1.815264
v 1.815264 2.224897 -1.184736
v 1.184736 3.002427 -1.815264
v 1.815264 3.002427 -1.184736
vt 0.318359 0.807711
vt 0.318359 0.791016
vt 0.349609 0.791016
vt 0.349609 0.807711
vt 0.318359 0.807711
vt 0.318359 0.791016
vt 0.349609 0.791016
vt 0.349609 0.807711
vt 0.353516 0.807711
vt 0.353516 0.791016
vt 0.384766 0.791016
vt 0.384766 0.807711
vt 0.318359 0.807711
vt 0.318359 0.791016
vt 0.349609 0.791016
vt 0.349609 0.807711
vt 0.353516 0.807711
vt 0.384766 0.807711
vt 0.384766 0.791016
vt 0.353516 0.791016
vt 0.455078 0.807711
vt 0.423828 0.807711
vt 0.423828 0.791016
vt 0.455078 0.791016
vt 0.455078 0.807711
vt 0.423828 0.807711
vt 0.423828 0.791016
vt 0.455078 0.791016
vt 0.455078 0.807711
vt 0.423828 0.807711
vt 0.423828 0.791016
vt 0.455078 0.791016
vt 0.949219 0.615234
vt 0.949219 0.646484
vt 0.982422 0.646484
vt 0.982422 0.615234
vt 0.949219 0.615234
vt 0.949219 0.646484
vt 0.982422 0.646484
vt 0.982422 0.615234
vt 0.949219 0.615234
vt 0.949219 0.646484
vt 0.982422 0.646484
vt 0.982422 0.615234
vt 0.949219 0.615234
vt 0.949219 0.646484
vt 0.982422 0.646484
vt 0.982422 0.615234
vn 0.000000 0.000000 1.000000
vn 0.000000 0.000000 1.000000
vn 0.000000 0.000000 1.000000
vn 0.000000 0.000000 1.000000
vn 0.000000 0.000000 1.000000
vn 0.000000 0.000000 1.000000
vn 0.000000 0.000000 1.000000
vn 0.000000 0.000000 1.000000
vn 1.000000 0.000000 -0.000000
vn 1.000000 0.000000 -0.000000
vn 1.000000 0.000000 -0.000000
vn 1.000000 0.000000 -0.000000
vn 0.000000 0.000000 1.000000
vn 0.000000 0.000000 1.000000
vn 0.000000 0.000000 1.000000
vn 0.000000 0.000000 1.000000
vn -1.000000 0.000000 0.000000
vn -1.000000 0.000000 0.000000
vn -1.000000 0.000000 0.000000
vn -1.000000 0.000000 0.000000
vn -0.000000 0.000000 -1.000000
vn -0.000000 0.000000 -1.000000
vn -0.000000 0.000000 -1.000000
vn -0.000000 0.000000 -1.000000
vn -0.000000 0.000000 -1.000000
vn -0.000000 0.000000 -1.000000
vn -0.000000 0.000000 -1.000000
vn -0.000000 0.000000 -1.000000
vn -0.000000 0.000000 -1.000000
vn -0.000000 0.000000 -1.000000
vn -0.000000 0.000000 -1.000000
vn -0.000000 0.000000 -1.000000
vn 0.707107 0.000000 0.707107
vn 0.707107 0.000000 0.707107
vn 0.707107 0.000000 0.707107
vn 0.707107 0.000000 0.707107
vn 0.707107 0.000000 -0.707107
vn 0.707107 0.000000 -0.707107
vn 0.707107 0.000000 -0.707107
vn 0.707107 0.000000 -0.707107
vn 0.707107 0.000000 0.707107
vn 0.707107 0.000000 0.707107
vn 0.707107 0.000000 0.707107
vn 0.707107 0.000000 0.707107
vn 0.707107 0.000000 -0.707107
vn 0.707107 0.000000 -0.707107
vn 0.707107 0.000000 -0.707107
vn 0.707107 0.000000 -0.707107
s off
g polySurface17
usemtl MC_material
f 1/1/1 2/2/2 3/3/3 4/4/4
f 7/5/5 8/6/6 5/7/7 9/8/8
f 9/9/9 5/10/10 6/11/11 10/12/12
f 15/13/13 11/14/14 13/15/15 14/16/16
f 15/17/17 16/18/18 12/19/19 11/20/20
f 17/21/21 18/22/22 19/23/23 20/24/24
f 21/25/25 22/26/26 23/27/27 24/28/28
f 25/29/29 26/30/30 27/31/31 28/32/32
usemtl mcbedflowers_MC_material
f 29/33/33 31/34/34 32/35/35 30/36/36
f 33/37/37 35/38/38 36/39/39 34/40/40
f 37/41/41 39/42/42 40/43/43 38/44/44
f 41/45/45 43/46/46 44/47/47 42/48/48
