# This file uses centimeters as units for non-parametric coordinates.

mtllib water2.mtl
g default
v -5.117815 -2.634479 10.830424
v -3.067613 -2.634479 12.008656
v 0.589131 -2.634479 12.270452
v -6.391012 -2.634479 9.264439
v -3.067613 -2.634479 9.202839
v 0.589131 -2.634479 9.202839
v -7.308075 -2.634479 6.135226
v -3.067613 -2.634479 6.135226
v 0.589131 -2.634479 6.135226
v -7.308075 -2.634479 3.067613
v -3.067613 -2.634479 3.067613
v 0.589131 -2.634479 3.067613
v -7.308075 -2.634479 0.000000
v -3.067613 -2.634479 0.000000
v -7.288821 -2.634479 -3.054796
v -3.067613 -2.634479 -3.067614
v 0.000000 -2.634479 -3.067614
v -7.288821 -2.634479 -6.122408
v -3.067613 -2.634479 -6.135226
v 0.000000 -2.634479 -6.135226
v -6.494122 -2.634479 -9.228475
v -3.067613 -2.634479 -9.202839
v 0.000000 -2.634479 -9.202839
v -5.102590 -2.634479 -10.818933
v -2.742858 -2.634479 -12.193834
v 0.000000 -2.634479 -12.359068
v -7.097878 -2.634479 7.778119
v -3.067613 -2.634479 7.745778
v 0.589131 -2.634479 7.745778
v -7.085112 -2.634479 -7.856772
v -3.067613 -2.634479 -7.848118
v 0.000000 -2.634479 -7.848118
v -3.529741 -2.634479 -11.842147
v -4.210226 -2.634479 -9.211388
v -4.407299 -2.634479 -7.851004
v -4.475228 -2.634479 -6.130951
v -4.475228 -2.634479 -3.063340
v -4.481649 -2.634479 0.000000
v -4.481649 -2.634479 3.067613
v -4.481649 -2.634479 6.135226
v -4.411555 -2.634479 7.756562
v -4.175842 -2.634479 9.223380
v -3.751278 -2.634479 11.615759
v -6.344123 -2.634479 -9.399919
v -4.136873 -2.634479 -9.484721
v -3.032606 -2.634479 -9.527147
v 0.000000 -2.634479 -9.543064
v -5.847294 -2.634479 -10.072424
v -3.838166 -2.634479 -10.597790
v -2.890051 -2.634479 -10.847795
v 0.000000 -2.634479 -10.928530
v -4.343074 -2.634479 -11.379851
v -4.739581 -2.634479 -10.360099
v -5.186749 -2.634479 -9.444385
v -5.296559 -2.634479 -9.219516
v -5.680998 -2.634479 -7.853748
v -5.813511 -2.634479 -6.126888
v -5.813511 -2.634479 -3.059276
v -5.826036 -2.634479 0.000000
v -5.826036 -2.634479 3.067613
v -5.826036 -2.634479 6.135226
v -5.689302 -2.634479 7.766816
v -5.229486 -2.634479 9.242910
v -4.401270 -2.634479 11.242215
v -1.578785 -2.634479 -3.067614
v -1.578785 -2.634479 -6.135226
v -1.578785 -2.634479 -7.848118
v -1.578785 -2.634479 -9.202839
v -1.560768 -2.634479 -9.534871
v -1.487401 -2.634479 -10.886979
v -1.411646 -2.634479 -12.294721
v -3.501510 -2.634480 -15.489725
v -5.088864 -2.634479 -14.929276
v -1.623867 -2.634480 -15.759326
v -6.250291 -2.634479 -14.303392
v -7.384253 -2.634479 -13.466185
v -8.497376 -2.634479 -12.351317
v -9.072442 -2.634477 -11.595081
v -9.783152 -2.634477 -10.333530
v -10.428601 -2.634479 -8.613976
v -10.779081 -2.634479 -6.127683
v -0.159592 -2.634479 -15.770005
v 1.091563 -2.634479 -12.359068
v 0.931971 -2.634479 -15.770005
v -9.618292 -2.634479 -8.424675
v -10.292801 -2.634479 -9.043864
v -10.541784 -2.634479 -7.992402
vt 0.644169 -0.970813
vt 0.644169 -0.670864
vt 0.571083 -0.928811
vt 0.525696 -0.673059
vt 1.035085 -0.998800
vt 1.035085 -0.670864
vt 0.644169 -0.515100
vt 0.644169 -0.342928
vt 0.500498 -0.516253
vt 0.493005 -0.342928
vt 1.035085 -0.515100
vt 1.035085 -0.342928
vt 0.493005 -0.014992
vt 0.644169 -0.014992
vt 1.035085 -0.014992
vt 0.493005 0.312944
vt 0.644169 0.312944
vt 0.493692 0.640423
vt 0.644169 0.640880
vt 0.493692 0.968359
vt 0.644169 0.968816
vt 0.803329 0.640880
vt 0.803329 0.968816
vt 0.500953 1.152238
vt 0.644169 1.151929
vt 0.522021 1.297666
vt 0.644169 1.296752
vt 0.803329 1.151929
vt 0.803329 1.296752
vt 0.561795 1.445876
vt 0.663151 1.472603
vt 0.594767 1.578901
vt 0.678886 1.616498
vt 0.813098 1.476791
vt 0.821197 1.627283
vt 0.465431 1.420466
vt 0.507819 1.529481
vt 0.364791 1.152531
vt 0.405889 1.298535
vt 0.350625 0.967925
vt 0.350625 0.639989
vt 0.349286 0.312944
vt 0.349286 -0.014992
vt 0.349286 -0.342928
vt 0.363903 -0.517349
vt 0.413059 -0.675147
vt 0.501598 -0.888878
vt 0.417628 1.322574
vt 0.529862 1.326886
vt 0.647912 1.331422
vt 0.805255 1.332247
vt 0.347014 1.389713
vt 0.426625 1.469517
vt 0.293902 1.317821
vt 0.277866 1.299493
vt 0.214688 1.152854
vt 0.192911 0.967446
vt 0.192911 0.639510
vt 0.190853 0.312944
vt 0.190853 -0.014992
vt 0.190853 -0.342928
vt 0.213323 -0.518557
vt 0.288889 -0.677449
vt 0.424997 -0.844857
vt 0.972105 0.640880
vt 0.972105 0.968816
vt 0.972105 1.151929
vt 0.972105 1.296752
vt 0.972105 1.333123
vt 0.972105 1.481233
vt 0.972105 1.634162
vt 0.597784 1.968837
vt 0.428092 1.908924
vt 0.798509 1.997658
vt 0.303932 1.842015
vt 0.182709 1.752515
vt 0.063713 1.633333
vt 0.002237 1.552489
vt -0.073740 1.417626
vt -0.142740 1.233801
vt -0.154840 1.167353
vt -0.056116 1.213564
vt -0.128223 1.279757
vt 0.955044 1.998800
vt 1.088796 1.634162
vt 1.071735 1.998800
vt -0.180207 0.968010
vn 0.000000 1.000000 0.000000
vn 0.000000 1.000000 0.000000
vn 0.000000 1.000000 0.000000
vn 0.000000 1.000000 0.000000
vn 0.000000 1.000000 0.000000
vn 0.000000 1.000000 0.000000
vn 0.000000 1.000000 0.000000
vn 0.000000 1.000000 0.000000
vn 0.000000 1.000000 0.000000
vn 0.000000 1.000000 0.000000
vn 0.000000 1.000000 0.000000
vn 0.000000 1.000000 0.000000
vn 0.000000 1.000000 0.000000
vn 0.000000 1.000000 0.000000
vn 0.000000 1.000000 0.000000
vn 0.000000 1.000000 0.000000
vn 0.000000 1.000000 0.000000
vn 0.000000 1.000000 0.000000
vn 0.000000 1.000000 0.000000
vn 0.000000 1.000000 0.000000
vn 0.000000 1.000000 0.000000
vn 0.000000 1.000000 0.000000
vn 0.000000 1.000000 0.000000
vn 0.000000 1.000000 0.000000
vn 0.000000 1.000000 0.000000
vn 0.000000 1.000000 0.000000
vn 0.000000 1.000000 0.000000
vn 0.000000 1.000000 0.000000
vn 0.000000 1.000000 0.000000
vn 0.000000 1.000000 0.000000
vn 0.000000 1.000000 0.000000
vn 0.000000 1.000000 0.000000
vn 0.000000 1.000000 0.000000
vn 0.000000 1.000000 0.000000
vn 0.000000 1.000000 0.000000
vn 0.000000 1.000000 0.000000
vn 0.000000 1.000000 0.000000
vn 0.000000 1.000000 0.000000
vn 0.000000 1.000000 0.000000
vn 0.000000 1.000000 0.000000
vn 0.000000 1.000000 0.000000
vn 0.000000 1.000000 0.000000
vn 0.000000 1.000000 0.000000
vn 0.000000 1.000000 0.000000
vn 0.000000 1.000000 0.000000
vn 0.000000 1.000000 0.000000
vn 0.000000 1.000000 0.000000
vn 0.000000 1.000000 0.000000
vn 0.000000 1.000000 0.000000
vn 0.000000 1.000000 0.000000
vn 0.000000 1.000000 0.000000
vn 0.000000 1.000000 0.000000
vn 0.000000 1.000000 0.000000
vn 0.000000 1.000000 0.000000
vn 0.000000 1.000000 0.000000
vn 0.000000 1.000000 0.000000
vn 0.000000 1.000000 0.000000
vn 0.000000 1.000000 0.000000
vn 0.000000 1.000000 0.000000
vn 0.000000 1.000000 0.000000
vn 0.000000 1.000000 0.000000
vn 0.000000 1.000000 0.000000
vn 0.000000 1.000000 0.000000
vn 0.000000 1.000000 0.000000
vn 0.000000 1.000000 0.000000
vn 0.000000 1.000000 0.000000
vn 0.000000 1.000000 0.000000
vn 0.000000 1.000000 0.000000
vn 0.000000 1.000000 0.000000
vn 0.000000 1.000000 0.000000
vn 0.000000 1.000000 0.000000
vn 0.000000 1.000000 0.000000
vn 0.000000 1.000000 0.000000
vn 0.000000 1.000000 0.000000
vn 0.000000 1.000000 0.000000
vn 0.000000 1.000000 0.000000
vn 0.000000 1.000000 0.000000
vn 0.000000 1.000000 0.000000
vn 0.000000 1.000000 0.000000
vn 0.000000 1.000000 0.000000
vn 0.000000 1.000000 0.000000
vn 0.000000 1.000000 0.000000
vn 0.000000 1.000000 0.000000
vn 0.000000 1.000000 0.000000
vn 0.000000 1.000000 0.000000
vn 0.000000 1.000000 0.000000
vn 0.000000 1.000000 0.000000
vn 0.000000 1.000000 0.000000
vn 0.000000 1.000000 0.000000
vn 0.000000 1.000000 0.000000
vn 0.000000 1.000000 0.000000
vn 0.000000 1.000000 0.000000
vn 0.000000 1.000000 0.000000
vn 0.000000 1.000000 0.000000
vn 0.000000 1.000000 0.000000
vn 0.000000 1.000000 0.000000
vn 0.000000 1.000000 0.000000
vn 0.000000 1.000000 0.000000
vn 0.000000 1.000000 0.000000
vn 0.000000 1.000000 0.000000
vn 0.000000 1.000000 0.000000
vn 0.000000 1.000000 0.000000
vn 0.000000 1.000000 0.000000
vn 0.000000 1.000000 0.000000
vn 0.000000 1.000000 0.000000
vn 0.000000 1.000000 0.000000
vn 0.000000 1.000000 0.000000
vn 0.000000 1.000000 0.000000
vn 0.000000 1.000000 0.000000
vn -0.000000 1.000000 -0.000000
vn -0.000000 1.000000 -0.000000
vn 0.000000 1.000000 0.000000
vn 0.000000 1.000000 0.000000
vn 0.000000 1.000000 0.000000
vn 0.000000 1.000000 0.000000
vn 0.000000 1.000000 0.000000
vn 0.000000 1.000000 0.000000
vn 0.000000 1.000000 0.000000
vn 0.000000 1.000000 0.000000
vn 0.000000 1.000000 0.000000
vn 0.000000 1.000000 0.000000
vn 0.000000 1.000000 0.000000
vn 0.000000 1.000000 0.000000
vn 0.000000 1.000000 0.000000
vn 0.000000 1.000000 0.000000
vn 0.000000 1.000000 0.000000
vn 0.000000 1.000000 0.000000
vn 0.000000 1.000000 0.000000
vn 0.000000 1.000000 0.000000
vn 0.000000 1.000000 0.000000
vn 0.000000 1.000000 0.000000
vn 0.000000 1.000000 0.000000
vn 0.000000 1.000000 0.000000
vn 0.000000 1.000000 0.000000
vn 0.000000 1.000000 0.000000
vn 0.000000 1.000000 0.000000
vn 0.000000 1.000000 0.000000
vn 0.000000 1.000000 0.000000
vn 0.000000 1.000000 0.000000
vn 0.000000 1.000000 0.000000
vn 0.000000 1.000000 0.000000
vn 0.000000 1.000000 0.000000
vn 0.000000 1.000000 0.000000
vn 0.000000 1.000000 0.000000
vn 0.000000 1.000000 0.000000
vn 0.000000 1.000000 0.000000
vn 0.000000 1.000000 0.000000
vn 0.000000 1.000000 0.000000
vn 0.000000 1.000000 0.000000
vn 0.000000 1.000000 0.000000
vn 0.000000 1.000000 0.000000
vn 0.000000 1.000000 0.000000
vn 0.000000 1.000000 0.000000
vn 0.000000 1.000000 0.000000
vn 0.000000 1.000000 0.000000
vn 0.000000 1.000000 0.000000
vn 0.000000 1.000000 0.000000
vn 0.000000 1.000000 0.000000
vn 0.000000 1.000000 0.000000
vn 0.000000 1.000000 0.000000
vn 0.000000 1.000000 0.000000
vn 0.000000 1.000000 0.000000
vn 0.000000 1.000000 0.000000
vn 0.000000 1.000000 0.000000
vn 0.000000 1.000000 0.000000
vn 0.000000 1.000000 0.000000
vn 0.000000 1.000000 0.000000
vn 0.000000 1.000000 0.000000
vn 0.000000 1.000000 0.000000
vn 0.000000 1.000000 0.000000
vn 0.000000 1.000000 0.000000
vn 0.000000 1.000000 0.000000
vn 0.000000 1.000000 0.000000
vn 0.000000 1.000000 0.000000
vn 0.000000 1.000000 0.000000
vn 0.000000 1.000000 0.000000
vn 0.000000 1.000000 0.000000
vn 0.000000 1.000000 0.000000
vn 0.000000 1.000000 0.000000
vn 0.000000 1.000000 0.000000
vn 0.000000 1.000000 0.000000
vn 0.000000 1.000000 0.000000
vn 0.000000 1.000000 0.000000
vn 0.000000 1.000000 0.000000
vn 0.000000 1.000000 0.000000
vn 0.000000 1.000000 0.000000
vn 0.000000 1.000000 0.000000
vn 0.000000 1.000000 0.000000
vn 0.000000 1.000000 0.000000
vn 0.000000 1.000000 0.000000
vn 0.000000 1.000000 0.000000
vn 0.000000 1.000000 0.000000
vn 0.000000 1.000000 0.000000
vn 0.000000 1.000000 0.000000
vn 0.000000 1.000000 0.000000
vn 0.000000 1.000000 0.000000
vn 0.000000 1.000000 0.000000
vn 0.000000 1.000000 0.000000
vn 0.000000 1.000000 0.000000
vn 0.000000 1.000000 0.000000
vn 0.000000 1.000000 0.000000
vn 0.000000 1.000000 0.000000
vn 0.000000 1.000000 0.000000
vn 0.000000 1.000000 0.000000
vn 0.000000 1.000000 0.000000
vn 0.000000 1.000000 0.000000
vn 0.000000 1.000000 0.000000
vn 0.000000 1.000000 0.000000
vn 0.000000 1.000000 0.000000
vn 0.000000 1.000000 0.000000
vn 0.000000 1.000000 0.000000
vn 0.000000 1.000000 0.000000
vn 0.000000 1.000000 0.000000
vn 0.000000 1.000000 0.000000
vn 0.000000 1.000000 0.000000
vn 0.000000 1.000000 0.000000
vn 0.000000 1.000000 0.000000
vn 0.000000 1.000000 0.000000
vn 0.000000 1.000000 0.000000
vn 0.000000 1.000000 0.000000
vn 0.000000 1.000000 0.000000
vn 0.000000 1.000000 0.000000
vn 0.000000 1.000000 0.000000
vn 0.000000 1.000000 0.000000
vn 0.000000 1.000000 0.000000
vn 0.000000 1.000000 0.000000
vn 0.000000 1.000000 0.000000
vn 0.000000 1.000000 0.000000
vn 0.000000 1.000000 0.000000
vn 0.000000 1.000000 0.000000
vn 0.000000 1.000000 0.000000
vn 0.000000 1.000000 0.000000
vn 0.000000 1.000000 0.000000
vn 0.000000 1.000000 0.000000
vn 0.000000 1.000000 0.000000
vn 0.000000 1.000000 0.000000
vn 0.000000 1.000000 0.000000
vn 0.000000 1.000000 0.000000
vn 0.000000 1.000000 0.000000
vn 0.000000 1.000000 0.000000
vn 0.000000 1.000000 0.000000
vn 0.000000 1.000000 0.000000
vn 0.000000 1.000000 0.000000
vn 0.000000 1.000000 0.000000
vn 0.000000 1.000000 0.000000
vn 0.000000 1.000000 0.000000
vn 0.000000 1.000000 0.000000
vn 0.000000 1.000000 0.000000
vn 0.000000 1.000000 0.000000
vn 0.000000 1.000000 0.000000
vn 0.000000 1.000000 0.000000
vn 0.000000 1.000000 0.000000
vn 0.000000 1.000000 0.000000
vn 0.000000 1.000000 0.000000
vn 0.000000 1.000000 0.000000
vn 0.000000 1.000000 0.000000
vn 0.000000 1.000000 0.000000
vn 0.000000 1.000000 0.000000
vn 0.000000 1.000000 0.000000
vn 0.000000 1.000000 0.000000
vn 0.000000 1.000000 0.000000
vn 0.000000 1.000000 0.000000
vn 0.000000 1.000000 0.000000
vn 0.000000 1.000000 0.000000
vn 0.000000 1.000000 0.000000
vn 0.000000 1.000000 0.000000
vn 0.000000 1.000000 0.000000
vn 0.000000 1.000000 0.000000
vn 0.000000 1.000000 0.000000
vn 0.000000 1.000000 0.000000
vn 0.000000 1.000000 0.000000
vn 0.000000 1.000000 0.000000
vn 0.000000 1.000000 0.000000
vn 0.000000 1.000000 0.000000
vn 0.000000 1.000000 0.000000
vn 0.000000 1.000000 0.000000
vn 0.000000 1.000000 0.000000
vn 0.000000 1.000000 0.000000
vn 0.000000 1.000000 0.000000
vn 0.000000 1.000000 0.000000
vn 0.000000 1.000000 0.000000
vn 0.000000 1.000000 0.000000
vn 0.000000 1.000000 0.000000
vn 0.000000 1.000000 0.000000
vn 0.000000 1.000000 0.000000
vn 0.000000 1.000000 0.000000
vn 0.000000 1.000000 0.000000
vn 0.000000 1.000000 0.000000
vn 0.000000 1.000000 0.000000
vn 0.000000 1.000000 0.000000
vn 0.000000 1.000000 0.000000
vn 0.000000 1.000000 0.000000
vn 0.000000 1.000000 0.000000
vn 0.000000 1.000000 0.000000
vn 0.000000 1.000000 0.000000
vn 0.000000 1.000000 0.000000
vn 0.000000 1.000000 0.000000
vn 0.000000 1.000000 0.000000
vn 0.000000 1.000000 0.000000
vn 0.000000 1.000000 0.000000
vn 0.000000 1.000000 0.000000
vn 0.000000 1.000000 0.000000
vn 0.000000 1.000000 0.000000
vn 0.000000 1.000000 -0.000000
vn 0.000000 1.000000 -0.000000
vn -0.000000 1.000000 -0.000000
vn 0.000000 1.000000 0.000000
vn 0.000000 1.000000 -0.000001
vn 0.000000 1.000000 0.000000
vn 0.000001 1.000000 -0.000001
vn 0.000000 1.000000 0.000000
vn 0.000000 1.000000 -0.000000
vn -0.000000 1.000000 0.000001
vn -0.000000 1.000000 0.000000
vn -0.000000 1.000000 0.000001
vn -0.000000 1.000000 -0.000000
vn 0.000000 1.000000 0.000000
vn 0.000000 1.000000 -0.000000
vn 0.000000 1.000000 -0.000000
vn 0.000000 1.000000 -0.000000
vn 0.000000 1.000000 -0.000000
s off
g water:pPlane1
usemtl water:waterSG
f 2/1/1 5/2/2 43/3/3
f 43/3/4 5/2/5 42/4/6
f 3/5/7 6/6/8 2/1/9
f 2/1/10 6/6/11 5/2/12
f 28/7/13 8/8/14 41/9/15
f 41/9/16 8/8/17 40/10/18
f 28/7/19 29/11/20 8/8/21
f 8/8/22 29/11/23 9/12/24
f 40/10/25 8/8/26 39/13/27
f 39/13/28 8/8/29 11/14/30
f 8/8/31 9/12/32 11/14/33
f 11/14/34 9/12/35 12/15/36
f 39/13/37 11/14/38 38/16/39
f 38/16/40 11/14/41 14/17/42
f 38/16/43 14/17/44 37/18/45
f 37/18/46 14/17/47 16/19/48
f 37/18/49 16/19/50 36/20/51
f 36/20/52 16/19/53 19/21/54
f 16/19/55 65/22/56 19/21/57
f 19/21/58 65/22/59 66/23/60
f 35/24/61 31/25/62 34/26/63
f 34/26/64 31/25/65 22/27/66
f 31/25/67 67/28/68 22/27/69
f 22/27/70 67/28/71 68/29/72
f 49/30/73 50/31/74 33/32/75
s 1
f 33/32/76 50/31/77 25/33/78
s off
f 50/31/79 70/34/80 25/33/81
s 1
f 25/33/78 70/34/82 71/35/83
s off
f 5/2/84 28/7/85 42/4/86
f 42/4/87 28/7/88 41/9/89
f 5/2/90 6/6/91 28/7/92
f 28/7/93 6/6/94 29/11/95
f 36/20/96 19/21/97 35/24/98
f 35/24/99 19/21/100 31/25/101
f 19/21/102 66/23/103 31/25/104
f 31/25/105 66/23/106 67/28/107
f 53/36/108 49/30/109 52/37/110
s 1
f 52/37/111 49/30/112 33/32/76
s off
f 56/38/113 35/24/114 55/39/115
f 55/39/116 35/24/117 34/26/118
f 57/40/119 36/20/120 56/38/121
f 56/38/122 36/20/123 35/24/124
f 58/41/125 37/18/126 57/40/127
f 57/40/128 37/18/129 36/20/130
f 59/42/131 38/16/132 58/41/133
f 58/41/134 38/16/135 37/18/136
f 60/43/137 39/13/138 59/42/139
f 59/42/140 39/13/141 38/16/142
f 61/44/143 40/10/144 60/43/145
f 60/43/146 40/10/147 39/13/148
f 41/9/149 40/10/150 62/45/151
f 62/45/152 40/10/153 61/44/154
f 42/4/155 41/9/156 63/46/157
f 63/46/158 41/9/159 62/45/160
f 43/3/161 42/4/162 64/47/163
f 64/47/164 42/4/165 63/46/166
f 55/39/167 34/26/168 54/48/169
f 54/48/170 34/26/171 45/49/172
f 34/26/173 22/27/174 45/49/175
f 45/49/176 22/27/177 46/50/178
f 22/27/179 68/29/180 46/50/181
f 46/50/182 68/29/183 69/51/184
f 54/48/185 45/49/186 53/36/187
f 53/36/188 45/49/189 49/30/190
f 45/49/191 46/50/192 49/30/193
f 49/30/194 46/50/195 50/31/196
f 46/50/197 69/51/198 50/31/199
f 50/31/200 69/51/201 70/34/202
s 1
f 48/52/203 53/36/204 24/53/205
f 24/53/205 53/36/206 52/37/111
f 44/54/207 54/48/208 48/52/203
s off
f 48/52/209 54/48/210 53/36/211
s 1
f 21/55/212 55/39/213 44/54/207
s off
f 44/54/214 55/39/215 54/48/216
s 1
f 30/56/217 56/38/218 21/55/212
s off
f 21/55/219 56/38/220 55/39/221
s 1
f 18/57/222 57/40/223 30/56/217
s off
f 30/56/224 57/40/225 56/38/226
f 15/58/227 58/41/228 18/57/229
f 18/57/230 58/41/231 57/40/232
f 13/59/233 59/42/234 15/58/235
f 15/58/236 59/42/237 58/41/238
f 10/60/239 60/43/240 13/59/241
f 13/59/242 60/43/243 59/42/244
f 7/61/245 61/44/246 10/60/247
f 10/60/248 61/44/249 60/43/250
f 62/45/251 61/44/252 27/62/253
f 27/62/254 61/44/255 7/61/256
f 63/46/257 62/45/258 4/63/259
f 4/63/260 62/45/261 27/62/262
f 64/47/263 63/46/264 1/64/265
f 1/64/266 63/46/267 4/63/268
f 65/22/269 17/65/270 66/23/271
f 66/23/272 17/65/273 20/66/274
f 67/28/275 66/23/276 32/67/277
f 32/67/278 66/23/279 20/66/280
f 68/29/281 67/28/282 23/68/283
f 23/68/284 67/28/285 32/67/286
f 68/29/287 23/68/288 69/51/289
f 69/51/290 23/68/291 47/69/292
f 69/51/293 47/69/294 70/34/295
f 70/34/296 47/69/297 51/70/298
f 70/34/299 51/70/300 71/35/301
s 1
f 71/35/83 51/70/302 26/71/303
f 33/32/76 25/33/78 73/73/304
f 73/73/304 25/33/78 72/72/305
f 71/35/83 74/74/306 25/33/78
f 25/33/78 74/74/306 72/72/305
f 33/32/76 73/73/304 52/37/111
f 52/37/111 73/73/304 75/75/307
f 48/52/203 24/53/205 77/77/308
f 77/77/308 24/53/205 76/76/309
f 52/37/111 75/75/307 24/53/205
f 24/53/205 75/75/307 76/76/309
f 44/54/207 48/52/203 78/78/310
f 78/78/310 48/52/203 77/77/308
f 44/54/207 78/78/310 21/55/212
f 21/55/212 78/78/310 79/79/311
f 87/81/312 85/82/313 80/80/314
f 80/80/314 85/82/313 86/83/315
f 26/71/303 82/84/316 71/35/83
f 71/35/83 82/84/316 74/74/306
s 12
f 82/84/317 26/71/318 84/86/319
f 84/86/319 26/71/318 83/85/320
s 1
f 81/87/321 18/57/222 87/81/312
f 87/81/312 18/57/222 85/82/313
f 18/57/222 30/56/217 85/82/313
f 21/55/212 79/79/311 30/56/217
f 86/83/315 85/82/313 79/79/311
f 30/56/217 79/79/311 85/82/313
